# xmcd
#
# Track frame offsets:
#	150
#	11267
#	20560
#	33618
#	46985
#	58313
#	67358
#	78746
#	88961
#	100447
#	114810
#	127296
#	140810
#	153362
#	169025
#	181396
#	194553
#	215641
#	223066
#	240141
#
# Disc length: 3325 seconds
#
# Revision: 0
# Processed by: cddbd v1.5.2PL0 Copyright (c) Steve Scherf et al.
# Submitted via: dBpowerAMP V4.0
#
DISCID=320cfb14
DTITLE=Country - 100 tubes country - CD4
DYEAR=1900
DGENRE=Country
TTITLE0=Johnny Cash - Cry Cry Cry
TTITLE1=Elvis Presley - Blue Moon of Kentucky
TTITLE2=Hank Williams - Jambalaya
TTITLE3=Alabama - Patches
TTITLE4=Bill Anderson and Vince Gill - Slippin' Away
TTITLE5=Frankie Laine - Rawhide
TTITLE6=Carl Smith - Loose Talk
TTITLE7=Dave Duddley - Six Days On the Road
TTITLE8=Don Gibson - I Can't Stop Loving You
TTITLE9=T Graham Brown - Darlene
TTITLE10=Faron Young - It's Four In the Morning
TTITLE11=Doug Stone - Fourteen Minutes Old
TTITLE12=Porter Wagoner - A Satisfied Mind
TTITLE13=Boxcar Willie - Mule Train
TTITLE14=Johnny Paycheck - Take This Job and Shove It
TTITLE15=Lynn Anderson - Rose Garden
TTITLE16=Marty Robbins - El Paso
TTITLE17=Merle Haggard - I'm a Lonesome Fugitive
TTITLE18=Smoky Dawson - Outlaws of the Wedding Range
TTITLE19=Webb Pierce - In the Jailhouse Now
EXTD=
EXTT0=
EXTT1=
EXTT2=
EXTT3=
EXTT4=
EXTT5=
EXTT6=
EXTT7=
EXTT8=
EXTT9=
EXTT10=
EXTT11=
EXTT12=
EXTT13=
EXTT14=
EXTT15=
EXTT16=
EXTT17=
EXTT18=
EXTT19=
PLAYORDER=
